<mxfile host="Electron" modified="2024-03-10T15:10:35.230Z" agent="Mozilla/5.0 (Windows NT 10.0; Win64; x64) AppleWebKit/537.36 (KHTML, like Gecko) draw.io/22.1.21 Chrome/120.0.6099.109 Electron/28.1.0 Safari/537.36" etag="SO_rd9e4IlXzQbehflK7" version="22.1.21" type="device">
  <diagram name="Page-1" id="L8812W1NORuFwZZzwdaZ">
    <mxGraphModel dx="1050" dy="1729" grid="1" gridSize="10" guides="1" tooltips="1" connect="1" arrows="1" fold="1" page="1" pageScale="1" pageWidth="850" pageHeight="1100" math="0" shadow="0">
      <root>
        <mxCell id="0" />
        <mxCell id="1" parent="0" />
        <mxCell id="uUj5u8TT4B4zXJkg5o2j-2" value="UART Transmission Frame" style="swimlane;whiteSpace=wrap;html=1;" parent="1" vertex="1">
          <mxGeometry x="70" y="-20" width="730" height="710" as="geometry" />
        </mxCell>
        <mxCell id="XIaafacladQvWUsD-wmB-1" value="Start byte&lt;br&gt;(1 byte)" style="rounded=0;whiteSpace=wrap;html=1;" parent="uUj5u8TT4B4zXJkg5o2j-2" vertex="1">
          <mxGeometry x="35" y="40" width="120" height="60" as="geometry" />
        </mxCell>
        <mxCell id="XIaafacladQvWUsD-wmB-2" value="Frame Length&lt;br&gt;(1 byte)" style="rounded=0;whiteSpace=wrap;html=1;" parent="uUj5u8TT4B4zXJkg5o2j-2" vertex="1">
          <mxGeometry x="155" y="40" width="160" height="60" as="geometry" />
        </mxCell>
        <mxCell id="XIaafacladQvWUsD-wmB-3" value="Node Id&lt;br&gt;(4 bytes)" style="rounded=0;whiteSpace=wrap;html=1;" parent="uUj5u8TT4B4zXJkg5o2j-2" vertex="1">
          <mxGeometry x="315" y="40" width="120" height="60" as="geometry" />
        </mxCell>
        <mxCell id="XIaafacladQvWUsD-wmB-5" value="End point&lt;br&gt;(1 byte)" style="rounded=0;whiteSpace=wrap;html=1;" parent="uUj5u8TT4B4zXJkg5o2j-2" vertex="1">
          <mxGeometry x="435" y="40" width="120" height="60" as="geometry" />
        </mxCell>
        <mxCell id="XIaafacladQvWUsD-wmB-6" value="Command Type&lt;br&gt;(1 byte)" style="rounded=0;whiteSpace=wrap;html=1;" parent="uUj5u8TT4B4zXJkg5o2j-2" vertex="1">
          <mxGeometry x="35" y="210" width="120" height="60" as="geometry" />
        </mxCell>
        <mxCell id="XIaafacladQvWUsD-wmB-7" value="Frame payload&lt;br&gt;(n bytes)" style="rounded=0;whiteSpace=wrap;html=1;" parent="uUj5u8TT4B4zXJkg5o2j-2" vertex="1">
          <mxGeometry x="295" y="210" width="120" height="60" as="geometry" />
        </mxCell>
        <mxCell id="XIaafacladQvWUsD-wmB-8" value="Frame payload length&lt;br&gt;(1 byte)" style="rounded=0;whiteSpace=wrap;html=1;" parent="uUj5u8TT4B4zXJkg5o2j-2" vertex="1">
          <mxGeometry x="155" y="210" width="140" height="60" as="geometry" />
        </mxCell>
        <mxCell id="XIaafacladQvWUsD-wmB-9" value="Sequence&lt;br&gt;(1 byte)" style="rounded=0;whiteSpace=wrap;html=1;" parent="uUj5u8TT4B4zXJkg5o2j-2" vertex="1">
          <mxGeometry x="415" y="210" width="120" height="60" as="geometry" />
        </mxCell>
        <mxCell id="XIaafacladQvWUsD-wmB-10" value="Checkxor&lt;br&gt;(1 byte)" style="rounded=0;whiteSpace=wrap;html=1;" parent="uUj5u8TT4B4zXJkg5o2j-2" vertex="1">
          <mxGeometry x="535" y="210" width="120" height="60" as="geometry" />
        </mxCell>
        <mxCell id="uUj5u8TT4B4zXJkg5o2j-8" value="(1)" style="text;html=1;strokeColor=none;fillColor=none;align=center;verticalAlign=middle;whiteSpace=wrap;rounded=0;" parent="uUj5u8TT4B4zXJkg5o2j-2" vertex="1">
          <mxGeometry x="65" y="110" width="60" height="30" as="geometry" />
        </mxCell>
        <mxCell id="uUj5u8TT4B4zXJkg5o2j-9" value="(2)" style="text;html=1;strokeColor=none;fillColor=none;align=center;verticalAlign=middle;whiteSpace=wrap;rounded=0;" parent="uUj5u8TT4B4zXJkg5o2j-2" vertex="1">
          <mxGeometry x="205" y="110" width="60" height="30" as="geometry" />
        </mxCell>
        <mxCell id="uUj5u8TT4B4zXJkg5o2j-10" value="(3)" style="text;html=1;strokeColor=none;fillColor=none;align=center;verticalAlign=middle;whiteSpace=wrap;rounded=0;" parent="uUj5u8TT4B4zXJkg5o2j-2" vertex="1">
          <mxGeometry x="340" y="110" width="60" height="30" as="geometry" />
        </mxCell>
        <mxCell id="uUj5u8TT4B4zXJkg5o2j-11" value="(4)" style="text;html=1;strokeColor=none;fillColor=none;align=center;verticalAlign=middle;whiteSpace=wrap;rounded=0;" parent="uUj5u8TT4B4zXJkg5o2j-2" vertex="1">
          <mxGeometry x="460" y="110" width="60" height="30" as="geometry" />
        </mxCell>
        <mxCell id="uUj5u8TT4B4zXJkg5o2j-12" value="(5)" style="text;html=1;strokeColor=none;fillColor=none;align=center;verticalAlign=middle;whiteSpace=wrap;rounded=0;" parent="uUj5u8TT4B4zXJkg5o2j-2" vertex="1">
          <mxGeometry x="585" y="110" width="60" height="30" as="geometry" />
        </mxCell>
        <mxCell id="uUj5u8TT4B4zXJkg5o2j-13" value="(6)" style="text;html=1;strokeColor=none;fillColor=none;align=center;verticalAlign=middle;whiteSpace=wrap;rounded=0;" parent="uUj5u8TT4B4zXJkg5o2j-2" vertex="1">
          <mxGeometry x="60" y="300" width="60" height="30" as="geometry" />
        </mxCell>
        <mxCell id="uUj5u8TT4B4zXJkg5o2j-14" value="(7)" style="text;html=1;strokeColor=none;fillColor=none;align=center;verticalAlign=middle;whiteSpace=wrap;rounded=0;" parent="uUj5u8TT4B4zXJkg5o2j-2" vertex="1">
          <mxGeometry x="205" y="300" width="60" height="30" as="geometry" />
        </mxCell>
        <mxCell id="uUj5u8TT4B4zXJkg5o2j-15" value="(8)" style="text;html=1;strokeColor=none;fillColor=none;align=center;verticalAlign=middle;whiteSpace=wrap;rounded=0;" parent="uUj5u8TT4B4zXJkg5o2j-2" vertex="1">
          <mxGeometry x="320" y="300" width="60" height="30" as="geometry" />
        </mxCell>
        <mxCell id="uUj5u8TT4B4zXJkg5o2j-16" value="(9)" style="text;html=1;strokeColor=none;fillColor=none;align=center;verticalAlign=middle;whiteSpace=wrap;rounded=0;" parent="uUj5u8TT4B4zXJkg5o2j-2" vertex="1">
          <mxGeometry x="445" y="300" width="60" height="30" as="geometry" />
        </mxCell>
        <mxCell id="u_efcKiN3UyRkMqc-Rgh-74" value="Where:" style="text;html=1;strokeColor=none;fillColor=none;align=center;verticalAlign=middle;whiteSpace=wrap;rounded=0;" parent="uUj5u8TT4B4zXJkg5o2j-2" vertex="1">
          <mxGeometry x="35" y="350" width="60" height="30" as="geometry" />
        </mxCell>
        <mxCell id="u_efcKiN3UyRkMqc-Rgh-75" value="(1)&amp;nbsp;byte marks the start of a transmission frame&amp;nbsp;: Value 0xB1" style="text;html=1;strokeColor=none;fillColor=none;align=left;verticalAlign=middle;whiteSpace=wrap;rounded=0;" parent="uUj5u8TT4B4zXJkg5o2j-2" vertex="1">
          <mxGeometry x="60" y="390" width="500" height="30" as="geometry" />
        </mxCell>
        <mxCell id="u_efcKiN3UyRkMqc-Rgh-76" value="(2) Frame length ( byte (1) and (2) is excluded )" style="text;html=1;strokeColor=none;fillColor=none;align=left;verticalAlign=middle;whiteSpace=wrap;rounded=0;" parent="uUj5u8TT4B4zXJkg5o2j-2" vertex="1">
          <mxGeometry x="60" y="420" width="415" height="30" as="geometry" />
        </mxCell>
        <mxCell id="u_efcKiN3UyRkMqc-Rgh-77" value="(3) identifier of the node in zigbee network" style="text;html=1;strokeColor=none;fillColor=none;align=left;verticalAlign=middle;whiteSpace=wrap;rounded=0;" parent="uUj5u8TT4B4zXJkg5o2j-2" vertex="1">
          <mxGeometry x="60" y="450" width="370" height="30" as="geometry" />
        </mxCell>
        <mxCell id="u_efcKiN3UyRkMqc-Rgh-78" value="(5) Command ID" style="text;html=1;strokeColor=none;fillColor=none;align=left;verticalAlign=middle;whiteSpace=wrap;rounded=0;" parent="uUj5u8TT4B4zXJkg5o2j-2" vertex="1">
          <mxGeometry x="60" y="500" width="330" height="30" as="geometry" />
        </mxCell>
        <mxCell id="u_efcKiN3UyRkMqc-Rgh-79" value="(6) Command Type" style="text;html=1;strokeColor=none;fillColor=none;align=left;verticalAlign=middle;whiteSpace=wrap;rounded=0;" parent="uUj5u8TT4B4zXJkg5o2j-2" vertex="1">
          <mxGeometry x="60" y="530" width="120" height="30" as="geometry" />
        </mxCell>
        <mxCell id="u_efcKiN3UyRkMqc-Rgh-80" value="(7) Frame payload length" style="text;html=1;strokeColor=none;fillColor=none;align=left;verticalAlign=middle;whiteSpace=wrap;rounded=0;" parent="uUj5u8TT4B4zXJkg5o2j-2" vertex="1">
          <mxGeometry x="60" y="560" width="145" height="30" as="geometry" />
        </mxCell>
        <mxCell id="u_efcKiN3UyRkMqc-Rgh-81" value="(8) Frame payload" style="text;html=1;strokeColor=none;fillColor=none;align=left;verticalAlign=middle;whiteSpace=wrap;rounded=0;" parent="uUj5u8TT4B4zXJkg5o2j-2" vertex="1">
          <mxGeometry x="60" y="590" width="250" height="30" as="geometry" />
        </mxCell>
        <mxCell id="u_efcKiN3UyRkMqc-Rgh-82" value="(9) sequence number" style="text;html=1;strokeColor=none;fillColor=none;align=left;verticalAlign=middle;whiteSpace=wrap;rounded=0;" parent="uUj5u8TT4B4zXJkg5o2j-2" vertex="1">
          <mxGeometry x="60" y="620" width="145" height="30" as="geometry" />
        </mxCell>
        <mxCell id="u_efcKiN3UyRkMqc-Rgh-83" value="(10) Check xor value" style="text;html=1;strokeColor=none;fillColor=none;align=left;verticalAlign=middle;whiteSpace=wrap;rounded=0;" parent="uUj5u8TT4B4zXJkg5o2j-2" vertex="1">
          <mxGeometry x="60" y="650" width="125" height="30" as="geometry" />
        </mxCell>
        <mxCell id="E6lMdMJOUhPXQ1a6M9SR-2" style="edgeStyle=orthogonalEdgeStyle;rounded=0;orthogonalLoop=1;jettySize=auto;html=1;exitX=1;exitY=0.5;exitDx=0;exitDy=0;entryX=0;entryY=0.5;entryDx=0;entryDy=0;" edge="1" parent="uUj5u8TT4B4zXJkg5o2j-2" source="E6lMdMJOUhPXQ1a6M9SR-1" target="XIaafacladQvWUsD-wmB-6">
          <mxGeometry relative="1" as="geometry" />
        </mxCell>
        <mxCell id="E6lMdMJOUhPXQ1a6M9SR-1" value="Command ID&lt;br&gt;(1 byte)" style="rounded=0;whiteSpace=wrap;html=1;" vertex="1" parent="uUj5u8TT4B4zXJkg5o2j-2">
          <mxGeometry x="555" y="40" width="120" height="60" as="geometry" />
        </mxCell>
        <mxCell id="E6lMdMJOUhPXQ1a6M9SR-3" value="(10)" style="text;html=1;strokeColor=none;fillColor=none;align=center;verticalAlign=middle;whiteSpace=wrap;rounded=0;" vertex="1" parent="uUj5u8TT4B4zXJkg5o2j-2">
          <mxGeometry x="560" y="300" width="60" height="30" as="geometry" />
        </mxCell>
        <mxCell id="E6lMdMJOUhPXQ1a6M9SR-4" value="(4) End point that should execute the command" style="text;html=1;strokeColor=none;fillColor=none;align=center;verticalAlign=middle;whiteSpace=wrap;rounded=0;" vertex="1" parent="uUj5u8TT4B4zXJkg5o2j-2">
          <mxGeometry x="55" y="480" width="265" height="20" as="geometry" />
        </mxCell>
        <mxCell id="uUj5u8TT4B4zXJkg5o2j-5" value="Zigbee data (Sub Frame 1)" style="swimlane;whiteSpace=wrap;html=1;startSize=23;" parent="1" vertex="1">
          <mxGeometry x="930" y="10" width="380" height="280" as="geometry" />
        </mxCell>
        <mxCell id="uUj5u8TT4B4zXJkg5o2j-18" value="Node ID&lt;br&gt;(4 bytes)" style="rounded=0;whiteSpace=wrap;html=1;" parent="uUj5u8TT4B4zXJkg5o2j-5" vertex="1">
          <mxGeometry x="70" y="50" width="120" height="60" as="geometry" />
        </mxCell>
        <mxCell id="uUj5u8TT4B4zXJkg5o2j-22" value="Destination endpoint&lt;br&gt;(1 byte)" style="rounded=0;whiteSpace=wrap;html=1;" parent="uUj5u8TT4B4zXJkg5o2j-5" vertex="1">
          <mxGeometry x="190" y="50" width="120" height="60" as="geometry" />
        </mxCell>
        <mxCell id="u_efcKiN3UyRkMqc-Rgh-84" value="Where:" style="text;html=1;strokeColor=none;fillColor=none;align=center;verticalAlign=middle;whiteSpace=wrap;rounded=0;" parent="uUj5u8TT4B4zXJkg5o2j-5" vertex="1">
          <mxGeometry x="10" y="150" width="60" height="30" as="geometry" />
        </mxCell>
        <mxCell id="u_efcKiN3UyRkMqc-Rgh-86" value="(1)&amp;nbsp; node id or network address of the device" style="text;html=1;strokeColor=none;fillColor=none;align=left;verticalAlign=middle;whiteSpace=wrap;rounded=0;" parent="uUj5u8TT4B4zXJkg5o2j-5" vertex="1">
          <mxGeometry x="40" y="180" width="300" height="30" as="geometry" />
        </mxCell>
        <mxCell id="u_efcKiN3UyRkMqc-Rgh-87" value="(2) choose an endpoint to execute the frame" style="text;html=1;strokeColor=none;fillColor=none;align=left;verticalAlign=middle;whiteSpace=wrap;rounded=0;" parent="uUj5u8TT4B4zXJkg5o2j-5" vertex="1">
          <mxGeometry x="40" y="230" width="250" height="30" as="geometry" />
        </mxCell>
        <mxCell id="e0wm8mG77t5puFvMu9oO-1" value="(1)" style="text;html=1;strokeColor=none;fillColor=none;align=center;verticalAlign=middle;whiteSpace=wrap;rounded=0;" parent="uUj5u8TT4B4zXJkg5o2j-5" vertex="1">
          <mxGeometry x="100" y="120" width="60" height="30" as="geometry" />
        </mxCell>
        <mxCell id="e0wm8mG77t5puFvMu9oO-2" value="(2)" style="text;html=1;strokeColor=none;fillColor=none;align=center;verticalAlign=middle;whiteSpace=wrap;rounded=0;" parent="uUj5u8TT4B4zXJkg5o2j-5" vertex="1">
          <mxGeometry x="220" y="120" width="60" height="30" as="geometry" />
        </mxCell>
        <mxCell id="uUj5u8TT4B4zXJkg5o2j-23" value="Frame payload table" style="swimlane;whiteSpace=wrap;html=1;startSize=23;" parent="1" vertex="1">
          <mxGeometry x="1650" y="70" width="860" height="530" as="geometry" />
        </mxCell>
        <mxCell id="u_efcKiN3UyRkMqc-Rgh-1" value="Frame payload" style="swimlane;childLayout=stackLayout;resizeParent=1;resizeParentMax=0;startSize=20;html=1;" parent="uUj5u8TT4B4zXJkg5o2j-23" vertex="1">
          <mxGeometry x="390" y="50" width="390" height="450" as="geometry">
            <mxRectangle x="15" y="50" width="40" height="30" as="alternateBounds" />
          </mxGeometry>
        </mxCell>
        <mxCell id="u_efcKiN3UyRkMqc-Rgh-4" value="Data 1" style="swimlane;startSize=20;html=1;" parent="u_efcKiN3UyRkMqc-Rgh-1" vertex="1">
          <mxGeometry y="20" width="130" height="430" as="geometry" />
        </mxCell>
        <mxCell id="u_efcKiN3UyRkMqc-Rgh-18" value="-" style="rounded=0;whiteSpace=wrap;html=1;" parent="u_efcKiN3UyRkMqc-Rgh-4" vertex="1">
          <mxGeometry y="20" width="130" height="60" as="geometry" />
        </mxCell>
        <mxCell id="u_efcKiN3UyRkMqc-Rgh-23" value="-" style="rounded=0;whiteSpace=wrap;html=1;" parent="u_efcKiN3UyRkMqc-Rgh-4" vertex="1">
          <mxGeometry y="80" width="130" height="50" as="geometry" />
        </mxCell>
        <mxCell id="u_efcKiN3UyRkMqc-Rgh-29" value="-" style="rounded=0;whiteSpace=wrap;html=1;" parent="u_efcKiN3UyRkMqc-Rgh-4" vertex="1">
          <mxGeometry y="130" width="130" height="50" as="geometry" />
        </mxCell>
        <mxCell id="u_efcKiN3UyRkMqc-Rgh-45" value="-" style="rounded=0;whiteSpace=wrap;html=1;" parent="u_efcKiN3UyRkMqc-Rgh-4" vertex="1">
          <mxGeometry y="230" width="130" height="50" as="geometry" />
        </mxCell>
        <mxCell id="u_efcKiN3UyRkMqc-Rgh-52" value="0 - 100&lt;br&gt;Level" style="rounded=0;whiteSpace=wrap;html=1;" parent="u_efcKiN3UyRkMqc-Rgh-4" vertex="1">
          <mxGeometry y="280" width="130" height="50" as="geometry" />
        </mxCell>
        <mxCell id="u_efcKiN3UyRkMqc-Rgh-53" value="-" style="rounded=0;whiteSpace=wrap;html=1;" parent="u_efcKiN3UyRkMqc-Rgh-4" vertex="1">
          <mxGeometry y="330" width="130" height="50" as="geometry" />
        </mxCell>
        <mxCell id="u_efcKiN3UyRkMqc-Rgh-61" value="0 - 100&lt;br&gt;Level" style="rounded=0;whiteSpace=wrap;html=1;" parent="u_efcKiN3UyRkMqc-Rgh-4" vertex="1">
          <mxGeometry y="380" width="130" height="50" as="geometry" />
        </mxCell>
        <mxCell id="p_-WAy6kK50HlESD8LDG-1" value="-" style="rounded=0;whiteSpace=wrap;html=1;" parent="u_efcKiN3UyRkMqc-Rgh-4" vertex="1">
          <mxGeometry y="180" width="130" height="50" as="geometry" />
        </mxCell>
        <mxCell id="u_efcKiN3UyRkMqc-Rgh-44" value="Output" style="swimlane;startSize=20;html=1;align=center;" parent="u_efcKiN3UyRkMqc-Rgh-1" vertex="1">
          <mxGeometry x="130" y="20" width="260" height="430" as="geometry" />
        </mxCell>
        <mxCell id="u_efcKiN3UyRkMqc-Rgh-65" value="Network created with specified&amp;nbsp;parameters" style="rounded=0;whiteSpace=wrap;html=1;align=center;" parent="u_efcKiN3UyRkMqc-Rgh-44" vertex="1">
          <mxGeometry y="20" width="260" height="60" as="geometry" />
        </mxCell>
        <mxCell id="u_efcKiN3UyRkMqc-Rgh-66" value="Network opening for other devices to join" style="rounded=0;whiteSpace=wrap;html=1;align=center;" parent="u_efcKiN3UyRkMqc-Rgh-44" vertex="1">
          <mxGeometry y="80" width="260" height="50" as="geometry" />
        </mxCell>
        <mxCell id="u_efcKiN3UyRkMqc-Rgh-67" value="Network closing for other devices not to join" style="rounded=0;whiteSpace=wrap;html=1;align=center;" parent="u_efcKiN3UyRkMqc-Rgh-44" vertex="1">
          <mxGeometry y="130" width="260" height="50" as="geometry" />
        </mxCell>
        <mxCell id="u_efcKiN3UyRkMqc-Rgh-69" value="Searching network on random channel" style="rounded=0;whiteSpace=wrap;html=1;align=center;" parent="u_efcKiN3UyRkMqc-Rgh-44" vertex="1">
          <mxGeometry y="180" width="260" height="50" as="geometry" />
        </mxCell>
        <mxCell id="u_efcKiN3UyRkMqc-Rgh-70" value="Network leaving and flash reset" style="rounded=0;whiteSpace=wrap;html=1;align=center;" parent="u_efcKiN3UyRkMqc-Rgh-44" vertex="1">
          <mxGeometry y="230" width="260" height="50" as="geometry" />
        </mxCell>
        <mxCell id="u_efcKiN3UyRkMqc-Rgh-71" value="Set device level" style="rounded=0;whiteSpace=wrap;html=1;align=center;" parent="u_efcKiN3UyRkMqc-Rgh-44" vertex="1">
          <mxGeometry y="280" width="260" height="50" as="geometry" />
        </mxCell>
        <mxCell id="u_efcKiN3UyRkMqc-Rgh-72" value="Request to get device level" style="rounded=0;whiteSpace=wrap;html=1;align=center;" parent="u_efcKiN3UyRkMqc-Rgh-44" vertex="1">
          <mxGeometry y="330" width="260" height="50" as="geometry" />
        </mxCell>
        <mxCell id="u_efcKiN3UyRkMqc-Rgh-73" value="Response the get request" style="rounded=0;whiteSpace=wrap;html=1;align=center;" parent="u_efcKiN3UyRkMqc-Rgh-44" vertex="1">
          <mxGeometry y="380" width="260" height="50" as="geometry" />
        </mxCell>
        <mxCell id="u_efcKiN3UyRkMqc-Rgh-3" value="Cmd Type" style="swimlane;startSize=20;html=1;" parent="uUj5u8TT4B4zXJkg5o2j-23" vertex="1">
          <mxGeometry x="240" y="70" width="150" height="430" as="geometry" />
        </mxCell>
        <mxCell id="u_efcKiN3UyRkMqc-Rgh-14" value="0x01&lt;br&gt;SET" style="rounded=0;whiteSpace=wrap;html=1;" parent="u_efcKiN3UyRkMqc-Rgh-3" vertex="1">
          <mxGeometry y="20" width="150" height="60" as="geometry" />
        </mxCell>
        <mxCell id="u_efcKiN3UyRkMqc-Rgh-22" value="0x01&lt;br&gt;SET" style="rounded=0;whiteSpace=wrap;html=1;" parent="u_efcKiN3UyRkMqc-Rgh-3" vertex="1">
          <mxGeometry y="80" width="150" height="50" as="geometry" />
        </mxCell>
        <mxCell id="u_efcKiN3UyRkMqc-Rgh-28" value="0x01&lt;br&gt;SET" style="rounded=0;whiteSpace=wrap;html=1;" parent="u_efcKiN3UyRkMqc-Rgh-3" vertex="1">
          <mxGeometry y="130" width="150" height="50" as="geometry" />
        </mxCell>
        <mxCell id="u_efcKiN3UyRkMqc-Rgh-34" value="0x01&lt;br&gt;SET" style="rounded=0;whiteSpace=wrap;html=1;" parent="u_efcKiN3UyRkMqc-Rgh-3" vertex="1">
          <mxGeometry y="180" width="150" height="50" as="geometry" />
        </mxCell>
        <mxCell id="u_efcKiN3UyRkMqc-Rgh-50" value="0x02&lt;br&gt;GET" style="rounded=0;whiteSpace=wrap;html=1;" parent="u_efcKiN3UyRkMqc-Rgh-3" vertex="1">
          <mxGeometry y="330" width="150" height="50" as="geometry" />
        </mxCell>
        <mxCell id="u_efcKiN3UyRkMqc-Rgh-35" value="0x01&lt;br&gt;SET" style="rounded=0;whiteSpace=wrap;html=1;" parent="u_efcKiN3UyRkMqc-Rgh-3" vertex="1">
          <mxGeometry y="230" width="150" height="50" as="geometry" />
        </mxCell>
        <mxCell id="u_efcKiN3UyRkMqc-Rgh-49" value="0x01&lt;br&gt;SET" style="rounded=0;whiteSpace=wrap;html=1;" parent="u_efcKiN3UyRkMqc-Rgh-3" vertex="1">
          <mxGeometry y="280" width="150" height="50" as="geometry" />
        </mxCell>
        <mxCell id="u_efcKiN3UyRkMqc-Rgh-51" value="0x03&lt;br&gt;RESPONSE" style="rounded=0;whiteSpace=wrap;html=1;" parent="u_efcKiN3UyRkMqc-Rgh-3" vertex="1">
          <mxGeometry y="380" width="150" height="50" as="geometry" />
        </mxCell>
        <mxCell id="u_efcKiN3UyRkMqc-Rgh-2" value="Cmd ID" style="swimlane;startSize=20;html=1;" parent="uUj5u8TT4B4zXJkg5o2j-23" vertex="1">
          <mxGeometry x="50" y="70" width="190" height="430" as="geometry" />
        </mxCell>
        <mxCell id="u_efcKiN3UyRkMqc-Rgh-5" value="0x01&lt;br&gt;Network creation" style="rounded=0;whiteSpace=wrap;html=1;" parent="u_efcKiN3UyRkMqc-Rgh-2" vertex="1">
          <mxGeometry y="20" width="190" height="60" as="geometry" />
        </mxCell>
        <mxCell id="u_efcKiN3UyRkMqc-Rgh-6" value="0x02&lt;br&gt;Network opening" style="rounded=0;whiteSpace=wrap;html=1;" parent="u_efcKiN3UyRkMqc-Rgh-2" vertex="1">
          <mxGeometry y="80" width="190" height="50" as="geometry" />
        </mxCell>
        <mxCell id="u_efcKiN3UyRkMqc-Rgh-7" value="0x03&lt;br&gt;Network closing" style="rounded=0;whiteSpace=wrap;html=1;" parent="u_efcKiN3UyRkMqc-Rgh-2" vertex="1">
          <mxGeometry y="130" width="190" height="50" as="geometry" />
        </mxCell>
        <mxCell id="u_efcKiN3UyRkMqc-Rgh-8" value="0x04&lt;br&gt;Network joining" style="rounded=0;whiteSpace=wrap;html=1;" parent="u_efcKiN3UyRkMqc-Rgh-2" vertex="1">
          <mxGeometry y="180" width="190" height="50" as="geometry" />
        </mxCell>
        <mxCell id="u_efcKiN3UyRkMqc-Rgh-10" value="0x05&lt;br&gt;Network leaving" style="rounded=0;whiteSpace=wrap;html=1;" parent="u_efcKiN3UyRkMqc-Rgh-2" vertex="1">
          <mxGeometry y="230" width="190" height="50" as="geometry" />
        </mxCell>
        <mxCell id="u_efcKiN3UyRkMqc-Rgh-11" value="0x06&lt;br&gt;Level control" style="rounded=0;whiteSpace=wrap;html=1;" parent="u_efcKiN3UyRkMqc-Rgh-2" vertex="1">
          <mxGeometry y="280" width="190" height="150" as="geometry" />
        </mxCell>
      </root>
    </mxGraphModel>
  </diagram>
</mxfile>
